<svg width="583" height="216" viewBox="0 0 583 216" fill="none" xmlns="http://www.w3.org/2000/svg">
<path d="M1.26 77.09C1.26 74.15 1.848 71.532 3.024 69.236C4.228 66.94 5.936 65.162 8.148 63.902C10.36 62.614 12.964 61.97 15.96 61.97C18.536 61.97 20.832 62.46 22.848 63.44C24.892 64.392 26.544 65.75 27.804 67.514C29.092 69.278 29.946 71.336 30.366 73.688H20.538C20.09 72.708 19.446 71.952 18.606 71.42C17.794 70.86 16.856 70.58 15.792 70.58C14.224 70.58 12.978 71.168 12.054 72.344C11.158 73.52 10.71 75.102 10.71 77.09C10.71 79.078 11.158 80.66 12.054 81.836C12.978 83.012 14.224 83.6 15.792 83.6C16.856 83.6 17.794 83.334 18.606 82.802C19.446 82.242 20.09 81.472 20.538 80.492H30.366C29.946 82.844 29.092 84.902 27.804 86.666C26.544 88.43 24.892 89.802 22.848 90.782C20.832 91.734 18.536 92.21 15.96 92.21C12.964 92.21 10.36 91.58 8.148 90.32C5.936 89.032 4.228 87.24 3.024 84.944C1.848 82.648 1.26 80.03 1.26 77.09ZM44.979 92.294C42.599 92.294 40.457 91.804 38.553 90.824C36.649 89.844 35.151 88.444 34.059 86.624C32.995 84.776 32.463 82.62 32.463 80.156C32.463 77.692 32.995 75.55 34.059 73.73C35.151 71.882 36.649 70.468 38.553 69.488C40.457 68.508 42.599 68.018 44.979 68.018C47.359 68.018 49.501 68.508 51.405 69.488C53.309 70.468 54.793 71.882 55.857 73.73C56.949 75.55 57.495 77.692 57.495 80.156C57.495 82.62 56.949 84.776 55.857 86.624C54.793 88.444 53.309 89.844 51.405 90.824C49.501 91.804 47.359 92.294 44.979 92.294ZM44.979 84.23C45.847 84.23 46.575 83.894 47.163 83.222C47.751 82.522 48.045 81.5 48.045 80.156C48.045 78.812 47.751 77.804 47.163 77.132C46.575 76.432 45.847 76.082 44.979 76.082C44.111 76.082 43.383 76.432 42.795 77.132C42.207 77.804 41.913 78.812 41.913 80.156C41.913 81.5 42.193 82.522 42.753 83.222C43.341 83.894 44.083 84.23 44.979 84.23ZM77.0142 68.144C79.7302 68.144 81.8442 69.054 83.3562 70.874C84.8962 72.694 85.6662 75.158 85.6662 78.266V92H76.3842V79.442C76.3842 78.322 76.0762 77.44 75.4602 76.796C74.8722 76.124 74.0742 75.788 73.0662 75.788C72.0302 75.788 71.2182 76.124 70.6302 76.796C70.0422 77.44 69.7482 78.322 69.7482 79.442V92H60.4242V68.312H69.7482V71.924C70.4762 70.804 71.4422 69.894 72.6462 69.194C73.8782 68.494 75.3342 68.144 77.0142 68.144ZM106.299 68.144C109.015 68.144 111.129 69.054 112.641 70.874C114.181 72.694 114.951 75.158 114.951 78.266V92H105.669V79.442C105.669 78.322 105.361 77.44 104.745 76.796C104.157 76.124 103.359 75.788 102.351 75.788C101.315 75.788 100.503 76.124 99.9154 76.796C99.3274 77.44 99.0334 78.322 99.0334 79.442V92H89.7094V68.312H99.0334V71.924C99.7614 70.804 100.727 69.894 101.931 69.194C103.163 68.494 104.619 68.144 106.299 68.144ZM141.927 79.946C141.927 80.59 141.885 81.206 141.801 81.794H126.807C126.947 83.838 127.801 84.86 129.369 84.86C130.377 84.86 131.105 84.398 131.553 83.474H141.423C141.087 85.154 140.373 86.666 139.281 88.01C138.217 89.326 136.859 90.376 135.207 91.16C133.583 91.916 131.791 92.294 129.831 92.294C127.479 92.294 125.379 91.804 123.531 90.824C121.711 89.844 120.283 88.444 119.247 86.624C118.239 84.776 117.735 82.62 117.735 80.156C117.735 77.692 118.239 75.55 119.247 73.73C120.283 71.882 121.711 70.468 123.531 69.488C125.379 68.508 127.479 68.018 129.831 68.018C132.183 68.018 134.269 68.508 136.089 69.488C137.937 70.44 139.365 71.812 140.373 73.604C141.409 75.396 141.927 77.51 141.927 79.946ZM132.477 77.72C132.477 76.936 132.225 76.348 131.721 75.956C131.217 75.536 130.587 75.326 129.831 75.326C128.179 75.326 127.213 76.124 126.933 77.72H132.477ZM143.615 80.156C143.615 77.692 144.119 75.55 145.127 73.73C146.163 71.882 147.591 70.468 149.411 69.488C151.259 68.508 153.359 68.018 155.711 68.018C158.791 68.018 161.381 68.886 163.481 70.622C165.609 72.358 166.953 74.766 167.513 77.846H157.643C157.279 76.614 156.565 75.998 155.501 75.998C154.745 75.998 154.143 76.348 153.695 77.048C153.275 77.748 153.065 78.784 153.065 80.156C153.065 81.528 153.275 82.564 153.695 83.264C154.143 83.964 154.745 84.314 155.501 84.314C156.565 84.314 157.279 83.698 157.643 82.466H167.513C166.953 85.546 165.609 87.954 163.481 89.69C161.381 91.426 158.791 92.294 155.711 92.294C153.359 92.294 151.259 91.804 149.411 90.824C147.591 89.844 146.163 88.444 145.127 86.624C144.119 84.776 143.615 82.62 143.615 80.156ZM185.211 84.062V92H181.683C175.187 92 171.939 88.766 171.939 82.298V76.082H168.999V68.312H171.939V62.6H181.263V68.312H185.127V76.082H181.263V82.466C181.263 83.026 181.389 83.432 181.641 83.684C181.921 83.936 182.369 84.062 182.985 84.062H185.211ZM231.851 68.312L226.223 92H215.723L212.867 78.644L209.843 92H199.343L193.757 68.312H202.997L204.971 82.718L208.037 68.312H217.991L221.225 82.886L223.241 68.312H231.851ZM238.542 66.422C236.918 66.422 235.616 65.988 234.636 65.12C233.656 64.252 233.166 63.16 233.166 61.844C233.166 60.5 233.656 59.394 234.636 58.526C235.616 57.63 236.918 57.182 238.542 57.182C240.138 57.182 241.426 57.63 242.406 58.526C243.386 59.394 243.876 60.5 243.876 61.844C243.876 63.16 243.386 64.252 242.406 65.12C241.426 65.988 240.138 66.422 238.542 66.422ZM243.162 68.312V92H233.838V68.312H243.162ZM262.115 84.062V92H258.587C252.091 92 248.843 88.766 248.843 82.298V76.082H245.903V68.312H248.843V62.6H258.167V68.312H262.031V76.082H258.167V82.466C258.167 83.026 258.293 83.432 258.545 83.684C258.825 83.936 259.273 84.062 259.889 84.062H262.115ZM282.256 68.144C284.972 68.144 287.086 69.054 288.598 70.874C290.138 72.694 290.908 75.158 290.908 78.266V92H281.626V79.442C281.626 78.322 281.318 77.44 280.702 76.796C280.114 76.124 279.316 75.788 278.308 75.788C277.272 75.788 276.46 76.124 275.872 76.796C275.284 77.44 274.99 78.322 274.99 79.442V92H265.666V60.92H274.99V71.924C275.718 70.804 276.684 69.894 277.888 69.194C279.12 68.494 280.576 68.144 282.256 68.144ZM311.412 62.264V92H302.088V62.264H311.412ZM324.947 71.546C325.535 70.454 326.375 69.6 327.467 68.984C328.587 68.34 329.917 68.018 331.457 68.018C333.305 68.018 334.971 68.508 336.455 69.488C337.939 70.44 339.101 71.84 339.941 73.688C340.809 75.508 341.243 77.664 341.243 80.156C341.243 82.648 340.809 84.818 339.941 86.666C339.101 88.486 337.939 89.886 336.455 90.866C334.971 91.818 333.305 92.294 331.457 92.294C329.917 92.294 328.587 91.986 327.467 91.37C326.375 90.726 325.535 89.858 324.947 88.766V92H315.623V60.92H324.947V71.546ZM331.793 80.156C331.793 78.896 331.471 77.916 330.827 77.216C330.183 76.516 329.357 76.166 328.349 76.166C327.341 76.166 326.515 76.516 325.871 77.216C325.227 77.916 324.905 78.896 324.905 80.156C324.905 81.416 325.227 82.396 325.871 83.096C326.515 83.796 327.341 84.146 328.349 84.146C329.357 84.146 330.183 83.796 330.827 83.096C331.471 82.396 331.793 81.416 331.793 80.156ZM353.494 71.546C354.082 70.454 354.922 69.6 356.014 68.984C357.134 68.34 358.464 68.018 360.004 68.018C361.852 68.018 363.518 68.508 365.002 69.488C366.486 70.44 367.648 71.84 368.488 73.688C369.356 75.508 369.79 77.664 369.79 80.156C369.79 82.648 369.356 84.818 368.488 86.666C367.648 88.486 366.486 89.886 365.002 90.866C363.518 91.818 361.852 92.294 360.004 92.294C358.464 92.294 357.134 91.986 356.014 91.37C354.922 90.726 354.082 89.858 353.494 88.766V92H344.17V60.92H353.494V71.546ZM360.34 80.156C360.34 78.896 360.018 77.916 359.374 77.216C358.73 76.516 357.904 76.166 356.896 76.166C355.888 76.166 355.062 76.516 354.418 77.216C353.774 77.916 353.452 78.896 353.452 80.156C353.452 81.416 353.774 82.396 354.418 83.096C355.062 83.796 355.888 84.146 356.896 84.146C357.904 84.146 358.73 83.796 359.374 83.096C360.018 82.396 360.34 81.416 360.34 80.156ZM399.471 68.312L384.309 103.34H374.103L380.067 90.824L370.197 68.312H380.571L385.023 80.324L389.181 68.312H399.471Z" fill="white"/>
<path d="M48.002 115.204C49.346 115.204 50.662 114.896 51.95 114.28C53.238 113.664 54.54 112.628 55.856 111.172L59.972 115.078C58.32 117.206 56.43 118.816 54.302 119.908C52.202 121 50.032 121.546 47.792 121.546C45.776 121.546 43.886 121.14 42.122 120.328C40.358 119.488 38.818 118.368 37.502 116.968C36.214 115.568 35.192 113.944 34.436 112.096C33.708 110.22 33.344 108.232 33.344 106.132C33.344 104.032 33.722 102.058 34.478 100.21C35.262 98.362 36.312 96.738 37.628 95.338C38.944 93.938 40.498 92.832 42.29 92.02C44.082 91.208 45.986 90.802 48.002 90.802C49.878 90.802 51.656 91.152 53.336 91.852C55.044 92.552 56.71 93.714 58.334 95.338L54.638 99.832C53.462 98.74 52.342 98.012 51.278 97.648C50.242 97.256 49.15 97.06 48.002 97.06C46.854 97.06 45.762 97.298 44.726 97.774C43.718 98.25 42.836 98.894 42.08 99.706C41.324 100.518 40.722 101.484 40.274 102.604C39.854 103.696 39.644 104.872 39.644 106.132C39.644 107.392 39.854 108.568 40.274 109.66C40.722 110.752 41.324 111.718 42.08 112.558C42.836 113.37 43.718 114.014 44.726 114.49C45.762 114.966 46.854 115.204 48.002 115.204ZM73.3411 99.58C74.8251 99.58 76.2251 99.874 77.5411 100.462C78.8571 101.022 80.0051 101.806 80.9851 102.814C81.9651 103.794 82.7351 104.956 83.2951 106.3C83.8831 107.616 84.1771 109.03 84.1771 110.542C84.1771 112.054 83.8831 113.482 83.2951 114.826C82.7351 116.142 81.9651 117.304 80.9851 118.312C80.0051 119.292 78.8571 120.076 77.5411 120.664C76.2251 121.224 74.8251 121.504 73.3411 121.504C71.8291 121.504 70.4151 121.224 69.0991 120.664C67.7831 120.076 66.6351 119.292 65.6551 118.312C64.6751 117.304 63.8911 116.142 63.3031 114.826C62.7431 113.482 62.4631 112.054 62.4631 110.542C62.4631 109.03 62.7431 107.616 63.3031 106.3C63.8911 104.956 64.6751 103.794 65.6551 102.814C66.6351 101.806 67.7831 101.022 69.0991 100.462C70.4151 99.874 71.8291 99.58 73.3411 99.58ZM73.3411 116.422C74.0411 116.422 74.6851 116.282 75.2731 116.002C75.8891 115.722 76.4211 115.344 76.8691 114.868C77.3451 114.364 77.7091 113.776 77.9611 113.104C78.2411 112.404 78.3811 111.634 78.3811 110.794C78.3811 109.954 78.2411 109.17 77.9611 108.442C77.7091 107.714 77.3451 107.084 76.8691 106.552C76.4211 105.992 75.8891 105.558 75.2731 105.25C74.6851 104.914 74.0411 104.746 73.3411 104.746C72.6411 104.746 71.9831 104.914 71.3671 105.25C70.7511 105.558 70.2051 105.992 69.7291 106.552C69.2811 107.084 68.9171 107.714 68.6371 108.442C68.3851 109.17 68.2591 109.954 68.2591 110.794C68.2591 111.634 68.3851 112.404 68.6371 113.104C68.9171 113.776 69.2811 114.364 69.7291 114.868C70.2051 115.344 70.7511 115.722 71.3671 116.002C71.9831 116.282 72.6411 116.422 73.3411 116.422ZM98.0463 100.168C98.8303 100.168 99.6983 100.28 100.65 100.504C101.602 100.728 102.498 101.148 103.338 101.764C104.178 102.38 104.878 103.234 105.438 104.326C106.026 105.418 106.32 106.832 106.32 108.568V121H100.482V108.778C100.482 108.134 100.37 107.588 100.146 107.14C99.9503 106.692 99.6703 106.342 99.3063 106.09C98.9703 105.81 98.5783 105.614 98.1303 105.502C97.6823 105.362 97.2343 105.292 96.7863 105.292C96.4223 105.292 96.0163 105.362 95.5683 105.502C95.1483 105.614 94.7423 105.81 94.3503 106.09C93.9863 106.37 93.6783 106.734 93.4263 107.182C93.1743 107.63 93.0483 108.162 93.0483 108.778V121H87.2523V100.168H92.2083L93.0483 101.764C93.7203 101.288 94.4763 100.91 95.3163 100.63C96.1563 100.322 97.0663 100.168 98.0463 100.168ZM120.769 100.168C121.553 100.168 122.421 100.28 123.373 100.504C124.325 100.728 125.221 101.148 126.061 101.764C126.901 102.38 127.601 103.234 128.161 104.326C128.749 105.418 129.043 106.832 129.043 108.568V121H123.205V108.778C123.205 108.134 123.093 107.588 122.869 107.14C122.673 106.692 122.393 106.342 122.029 106.09C121.693 105.81 121.301 105.614 120.853 105.502C120.405 105.362 119.957 105.292 119.509 105.292C119.145 105.292 118.739 105.362 118.291 105.502C117.871 105.614 117.465 105.81 117.073 106.09C116.709 106.37 116.401 106.734 116.149 107.182C115.897 107.63 115.771 108.162 115.771 108.778V121H109.975V100.168H114.931L115.771 101.764C116.443 101.288 117.199 100.91 118.039 100.63C118.879 100.322 119.789 100.168 120.769 100.168ZM142.946 99.58C144.514 99.58 145.942 99.902 147.23 100.546C148.518 101.162 149.624 101.988 150.548 103.024C151.472 104.032 152.186 105.208 152.69 106.552C153.194 107.868 153.446 109.226 153.446 110.626C153.446 111.466 153.334 112.362 153.11 113.314H138.242C138.802 114.266 139.6 115.078 140.636 115.75C141.672 116.394 142.792 116.716 143.996 116.716C145.2 116.716 146.25 116.618 147.146 116.422C148.07 116.226 148.938 115.974 149.75 115.666L151.682 119.236C150.646 119.964 149.456 120.524 148.112 120.916C146.796 121.308 145.382 121.504 143.87 121.504C142.218 121.504 140.678 121.224 139.25 120.664C137.822 120.076 136.576 119.292 135.512 118.312C134.448 117.332 133.608 116.17 132.992 114.826C132.376 113.482 132.068 112.054 132.068 110.542C132.068 109.058 132.348 107.658 132.908 106.342C133.468 104.998 134.238 103.836 135.218 102.856C136.226 101.848 137.388 101.05 138.704 100.462C140.02 99.874 141.434 99.58 142.946 99.58ZM147.692 108.82C147.356 107.616 146.754 106.636 145.886 105.88C145.018 105.124 144.038 104.746 142.946 104.746C141.826 104.746 140.804 105.124 139.88 105.88C138.984 106.636 138.368 107.616 138.032 108.82H147.692ZM167.882 104.746C167.182 104.746 166.524 104.914 165.908 105.25C165.292 105.558 164.746 105.992 164.27 106.552C163.822 107.084 163.458 107.714 163.178 108.442C162.926 109.17 162.8 109.954 162.8 110.794C162.8 111.634 162.926 112.404 163.178 113.104C163.458 113.776 163.822 114.364 164.27 114.868C164.746 115.344 165.292 115.722 165.908 116.002C166.524 116.282 167.182 116.422 167.882 116.422C168.75 116.422 169.59 116.226 170.402 115.834C171.242 115.414 171.956 114.84 172.544 114.112L176.114 117.64C175.134 118.816 173.93 119.754 172.502 120.454C171.074 121.154 169.534 121.504 167.882 121.504C166.37 121.504 164.956 121.224 163.64 120.664C162.324 120.076 161.176 119.292 160.196 118.312C159.216 117.304 158.432 116.142 157.844 114.826C157.284 113.482 157.004 112.054 157.004 110.542C157.004 109.03 157.284 107.616 157.844 106.3C158.432 104.956 159.216 103.794 160.196 102.814C161.176 101.806 162.324 101.022 163.64 100.462C164.956 99.874 166.37 99.58 167.882 99.58C169.59 99.58 171.172 99.944 172.628 100.672C174.084 101.4 175.316 102.394 176.324 103.654L172.292 106.762C171.48 106.006 170.738 105.488 170.066 105.208C169.422 104.9 168.694 104.746 167.882 104.746ZM186.935 113.524C186.935 114.504 187.229 115.26 187.817 115.792C188.433 116.324 189.231 116.59 190.211 116.59C190.995 116.59 191.779 116.436 192.563 116.128V121C191.863 121.224 191.121 121.406 190.337 121.546C189.553 121.714 188.769 121.798 187.985 121.798C187.089 121.798 186.235 121.686 185.423 121.462C184.611 121.238 183.883 120.86 183.239 120.328C182.595 119.768 182.077 119.04 181.685 118.144C181.321 117.22 181.139 116.086 181.139 114.742V105.334H178.157V101.428L181.139 100.168V95.506H186.935V100.168H192.563V105.334H186.935V113.524ZM234.278 100.168H240.242L233.984 121H226.634L223.61 110.962L223.316 107.98L222.98 110.962L219.956 121H212.648L206.39 100.168H212.354L216.68 115.246L220.88 100.168H225.71L229.91 115.33L234.278 100.168ZM249.78 121H243.984V100.168H249.78V121ZM246.882 97.312C245.986 97.312 245.23 97.004 244.614 96.388C243.998 95.772 243.69 95.016 243.69 94.12C243.69 93.224 243.998 92.468 244.614 91.852C245.23 91.208 245.986 90.886 246.882 90.886C247.778 90.886 248.534 91.208 249.15 91.852C249.766 92.468 250.074 93.224 250.074 94.12C250.074 95.016 249.766 95.772 249.15 96.388C248.534 97.004 247.778 97.312 246.882 97.312ZM261.789 113.524C261.789 114.504 262.083 115.26 262.671 115.792C263.287 116.324 264.085 116.59 265.065 116.59C265.849 116.59 266.633 116.436 267.417 116.128V121C266.717 121.224 265.975 121.406 265.191 121.546C264.407 121.714 263.623 121.798 262.839 121.798C261.943 121.798 261.089 121.686 260.277 121.462C259.465 121.238 258.737 120.86 258.093 120.328C257.449 119.768 256.931 119.04 256.539 118.144C256.175 117.22 255.993 116.086 255.993 114.742V105.334H253.011V101.428L255.993 100.168V95.506H261.789V100.168H267.417V105.334H261.789V113.524ZM281.773 99.58C283.145 99.58 284.419 99.874 285.595 100.462C286.799 101.022 287.835 101.806 288.703 102.814C289.571 103.794 290.243 104.956 290.719 106.3C291.223 107.616 291.475 109.03 291.475 110.542V121H285.805V117.178C285.805 116.114 285.805 115.022 285.805 113.902C285.833 112.754 285.847 111.774 285.847 110.962C285.847 110.178 285.721 109.408 285.469 108.652C285.217 107.896 284.867 107.238 284.419 106.678C283.971 106.09 283.439 105.628 282.823 105.292C282.235 104.928 281.605 104.746 280.933 104.746C280.289 104.746 279.673 104.872 279.085 105.124C278.497 105.348 277.979 105.698 277.531 106.174C277.083 106.622 276.719 107.196 276.439 107.896C276.187 108.596 276.061 109.422 276.061 110.374V121H270.223V90.34H276.061V101.764C276.789 101.064 277.615 100.532 278.539 100.168C279.491 99.776 280.569 99.58 281.773 99.58ZM316.58 91.222V96.598H314.354V115.666H316.58V121H305.744V115.666H307.97V96.598H305.744V91.222H316.58ZM332.438 99.58C333.894 99.58 335.252 99.874 336.512 100.462C337.772 101.022 338.864 101.806 339.788 102.814C340.712 103.794 341.426 104.956 341.93 106.3C342.462 107.616 342.728 109.03 342.728 110.542C342.728 112.054 342.462 113.482 341.93 114.826C341.426 116.142 340.712 117.304 339.788 118.312C338.864 119.292 337.772 120.076 336.512 120.664C335.252 121.224 333.894 121.504 332.438 121.504C331.206 121.504 330.016 121.294 328.868 120.874C327.748 120.426 326.866 119.866 326.222 119.194L325.382 121H320.426V90.34H326.222V101.848C327.818 100.336 329.89 99.58 332.438 99.58ZM331.64 116.338C332.396 116.338 333.096 116.184 333.74 115.876C334.412 115.568 335 115.162 335.504 114.658C336.008 114.126 336.4 113.51 336.68 112.81C336.96 112.11 337.1 111.354 337.1 110.542C337.1 109.758 336.96 109.016 336.68 108.316C336.4 107.588 336.008 106.972 335.504 106.468C335 105.936 334.412 105.516 333.74 105.208C333.096 104.9 332.396 104.746 331.64 104.746C330.884 104.746 330.17 104.858 329.498 105.082C328.854 105.278 328.28 105.614 327.776 106.09C327.3 106.538 326.922 107.14 326.642 107.896C326.362 108.624 326.222 109.534 326.222 110.626C326.222 111.606 326.362 112.46 326.642 113.188C326.922 113.888 327.3 114.476 327.776 114.952C328.28 115.4 328.854 115.75 329.498 116.002C330.17 116.226 330.884 116.338 331.64 116.338ZM357.253 99.58C358.709 99.58 360.067 99.874 361.327 100.462C362.587 101.022 363.679 101.806 364.603 102.814C365.527 103.794 366.241 104.956 366.745 106.3C367.277 107.616 367.543 109.03 367.543 110.542C367.543 112.054 367.277 113.482 366.745 114.826C366.241 116.142 365.527 117.304 364.603 118.312C363.679 119.292 362.587 120.076 361.327 120.664C360.067 121.224 358.709 121.504 357.253 121.504C356.021 121.504 354.831 121.294 353.683 120.874C352.563 120.426 351.681 119.866 351.037 119.194L350.197 121H345.241V90.34H351.037V101.848C352.633 100.336 354.705 99.58 357.253 99.58ZM356.455 116.338C357.211 116.338 357.911 116.184 358.555 115.876C359.227 115.568 359.815 115.162 360.319 114.658C360.823 114.126 361.215 113.51 361.495 112.81C361.775 112.11 361.915 111.354 361.915 110.542C361.915 109.758 361.775 109.016 361.495 108.316C361.215 107.588 360.823 106.972 360.319 106.468C359.815 105.936 359.227 105.516 358.555 105.208C357.911 104.9 357.211 104.746 356.455 104.746C355.699 104.746 354.985 104.858 354.313 105.082C353.669 105.278 353.095 105.614 352.591 106.09C352.115 106.538 351.737 107.14 351.457 107.896C351.177 108.624 351.037 109.534 351.037 110.626C351.037 111.606 351.177 112.46 351.457 113.188C351.737 113.888 352.115 114.476 352.591 114.952C353.095 115.4 353.669 115.75 354.313 116.002C354.985 116.226 355.699 116.338 356.455 116.338ZM385.443 100.168H391.785L378.639 129.316H372.297L377.463 117.85L368.643 100.168H375.111L380.529 111.046L385.443 100.168Z" fill="#36F617"/>
<path d="M66.26 139.09C66.26 136.15 66.848 133.532 68.024 131.236C69.228 128.94 70.936 127.162 73.148 125.902C75.36 124.614 77.964 123.97 80.96 123.97C83.536 123.97 85.832 124.46 87.848 125.44C89.892 126.392 91.544 127.75 92.804 129.514C94.092 131.278 94.946 133.336 95.366 135.688H85.538C85.09 134.708 84.446 133.952 83.606 133.42C82.794 132.86 81.856 132.58 80.792 132.58C79.224 132.58 77.978 133.168 77.054 134.344C76.158 135.52 75.71 137.102 75.71 139.09C75.71 141.078 76.158 142.66 77.054 143.836C77.978 145.012 79.224 145.6 80.792 145.6C81.856 145.6 82.794 145.334 83.606 144.802C84.446 144.242 85.09 143.472 85.538 142.492H95.366C94.946 144.844 94.092 146.902 92.804 148.666C91.544 150.43 89.892 151.802 87.848 152.782C85.832 153.734 83.536 154.21 80.96 154.21C77.964 154.21 75.36 153.58 73.148 152.32C70.936 151.032 69.228 149.24 68.024 146.944C66.848 144.648 66.26 142.03 66.26 139.09ZM109.979 154.294C107.599 154.294 105.457 153.804 103.553 152.824C101.649 151.844 100.151 150.444 99.059 148.624C97.995 146.776 97.463 144.62 97.463 142.156C97.463 139.692 97.995 137.55 99.059 135.73C100.151 133.882 101.649 132.468 103.553 131.488C105.457 130.508 107.599 130.018 109.979 130.018C112.359 130.018 114.501 130.508 116.405 131.488C118.309 132.468 119.793 133.882 120.857 135.73C121.949 137.55 122.495 139.692 122.495 142.156C122.495 144.62 121.949 146.776 120.857 148.624C119.793 150.444 118.309 151.844 116.405 152.824C114.501 153.804 112.359 154.294 109.979 154.294ZM109.979 146.23C110.847 146.23 111.575 145.894 112.163 145.222C112.751 144.522 113.045 143.5 113.045 142.156C113.045 140.812 112.751 139.804 112.163 139.132C111.575 138.432 110.847 138.082 109.979 138.082C109.111 138.082 108.383 138.432 107.795 139.132C107.207 139.804 106.913 140.812 106.913 142.156C106.913 143.5 107.193 144.522 107.753 145.222C108.341 145.894 109.083 146.23 109.979 146.23ZM142.014 130.144C144.73 130.144 146.844 131.054 148.356 132.874C149.896 134.694 150.666 137.158 150.666 140.266V154H141.384V141.442C141.384 140.322 141.076 139.44 140.46 138.796C139.872 138.124 139.074 137.788 138.066 137.788C137.03 137.788 136.218 138.124 135.63 138.796C135.042 139.44 134.748 140.322 134.748 141.442V154H125.424V130.312H134.748V133.924C135.476 132.804 136.442 131.894 137.646 131.194C138.878 130.494 140.334 130.144 142.014 130.144ZM171.299 130.144C174.015 130.144 176.129 131.054 177.641 132.874C179.181 134.694 179.951 137.158 179.951 140.266V154H170.669V141.442C170.669 140.322 170.361 139.44 169.745 138.796C169.157 138.124 168.359 137.788 167.351 137.788C166.315 137.788 165.503 138.124 164.915 138.796C164.327 139.44 164.033 140.322 164.033 141.442V154H154.709V130.312H164.033V133.924C164.761 132.804 165.727 131.894 166.931 131.194C168.163 130.494 169.619 130.144 171.299 130.144ZM206.927 141.946C206.927 142.59 206.885 143.206 206.801 143.794H191.807C191.947 145.838 192.801 146.86 194.369 146.86C195.377 146.86 196.105 146.398 196.553 145.474H206.423C206.087 147.154 205.373 148.666 204.281 150.01C203.217 151.326 201.859 152.376 200.207 153.16C198.583 153.916 196.791 154.294 194.831 154.294C192.479 154.294 190.379 153.804 188.531 152.824C186.711 151.844 185.283 150.444 184.247 148.624C183.239 146.776 182.735 144.62 182.735 142.156C182.735 139.692 183.239 137.55 184.247 135.73C185.283 133.882 186.711 132.468 188.531 131.488C190.379 130.508 192.479 130.018 194.831 130.018C197.183 130.018 199.269 130.508 201.089 131.488C202.937 132.44 204.365 133.812 205.373 135.604C206.409 137.396 206.927 139.51 206.927 141.946ZM197.477 139.72C197.477 138.936 197.225 138.348 196.721 137.956C196.217 137.536 195.587 137.326 194.831 137.326C193.179 137.326 192.213 138.124 191.933 139.72H197.477ZM208.615 142.156C208.615 139.692 209.119 137.55 210.127 135.73C211.163 133.882 212.591 132.468 214.411 131.488C216.259 130.508 218.359 130.018 220.711 130.018C223.791 130.018 226.381 130.886 228.481 132.622C230.609 134.358 231.953 136.766 232.513 139.846H222.643C222.279 138.614 221.565 137.998 220.501 137.998C219.745 137.998 219.143 138.348 218.695 139.048C218.275 139.748 218.065 140.784 218.065 142.156C218.065 143.528 218.275 144.564 218.695 145.264C219.143 145.964 219.745 146.314 220.501 146.314C221.565 146.314 222.279 145.698 222.643 144.466H232.513C231.953 147.546 230.609 149.954 228.481 151.69C226.381 153.426 223.791 154.294 220.711 154.294C218.359 154.294 216.259 153.804 214.411 152.824C212.591 151.844 211.163 150.444 210.127 148.624C209.119 146.776 208.615 144.62 208.615 142.156ZM250.211 146.062V154H246.683C240.187 154 236.939 150.766 236.939 144.298V138.082H233.999V130.312H236.939V124.6H246.263V130.312H250.127V138.082H246.263V144.466C246.263 145.026 246.389 145.432 246.641 145.684C246.921 145.936 247.369 146.062 247.985 146.062H250.211ZM296.851 130.312L291.223 154H280.723L277.867 140.644L274.843 154H264.343L258.757 130.312H267.997L269.971 144.718L273.037 130.312H282.991L286.225 144.886L288.241 130.312H296.851ZM303.542 128.422C301.918 128.422 300.616 127.988 299.636 127.12C298.656 126.252 298.166 125.16 298.166 123.844C298.166 122.5 298.656 121.394 299.636 120.526C300.616 119.63 301.918 119.182 303.542 119.182C305.138 119.182 306.426 119.63 307.406 120.526C308.386 121.394 308.876 122.5 308.876 123.844C308.876 125.16 308.386 126.252 307.406 127.12C306.426 127.988 305.138 128.422 303.542 128.422ZM308.162 130.312V154H298.838V130.312H308.162ZM327.115 146.062V154H323.587C317.091 154 313.843 150.766 313.843 144.298V138.082H310.903V130.312H313.843V124.6H323.167V130.312H327.031V138.082H323.167V144.466C323.167 145.026 323.293 145.432 323.545 145.684C323.825 145.936 324.273 146.062 324.889 146.062H327.115ZM347.256 130.144C349.972 130.144 352.086 131.054 353.598 132.874C355.138 134.694 355.908 137.158 355.908 140.266V154H346.626V141.442C346.626 140.322 346.318 139.44 345.702 138.796C345.114 138.124 344.316 137.788 343.308 137.788C342.272 137.788 341.46 138.124 340.872 138.796C340.284 139.44 339.99 140.322 339.99 141.442V154H330.666V122.92H339.99V133.924C340.718 132.804 341.684 131.894 342.888 131.194C344.12 130.494 345.576 130.144 347.256 130.144ZM376.412 124.264V154H367.088V124.264H376.412ZM389.947 133.546C390.535 132.454 391.375 131.6 392.467 130.984C393.587 130.34 394.917 130.018 396.457 130.018C398.305 130.018 399.971 130.508 401.455 131.488C402.939 132.44 404.101 133.84 404.941 135.688C405.809 137.508 406.243 139.664 406.243 142.156C406.243 144.648 405.809 146.818 404.941 148.666C404.101 150.486 402.939 151.886 401.455 152.866C399.971 153.818 398.305 154.294 396.457 154.294C394.917 154.294 393.587 153.986 392.467 153.37C391.375 152.726 390.535 151.858 389.947 150.766V154H380.623V122.92H389.947V133.546ZM396.793 142.156C396.793 140.896 396.471 139.916 395.827 139.216C395.183 138.516 394.357 138.166 393.349 138.166C392.341 138.166 391.515 138.516 390.871 139.216C390.227 139.916 389.905 140.896 389.905 142.156C389.905 143.416 390.227 144.396 390.871 145.096C391.515 145.796 392.341 146.146 393.349 146.146C394.357 146.146 395.183 145.796 395.827 145.096C396.471 144.396 396.793 143.416 396.793 142.156ZM418.494 133.546C419.082 132.454 419.922 131.6 421.014 130.984C422.134 130.34 423.464 130.018 425.004 130.018C426.852 130.018 428.518 130.508 430.002 131.488C431.486 132.44 432.648 133.84 433.488 135.688C434.356 137.508 434.79 139.664 434.79 142.156C434.79 144.648 434.356 146.818 433.488 148.666C432.648 150.486 431.486 151.886 430.002 152.866C428.518 153.818 426.852 154.294 425.004 154.294C423.464 154.294 422.134 153.986 421.014 153.37C419.922 152.726 419.082 151.858 418.494 150.766V154H409.17V122.92H418.494V133.546ZM425.34 142.156C425.34 140.896 425.018 139.916 424.374 139.216C423.73 138.516 422.904 138.166 421.896 138.166C420.888 138.166 420.062 138.516 419.418 139.216C418.774 139.916 418.452 140.896 418.452 142.156C418.452 143.416 418.774 144.396 419.418 145.096C420.062 145.796 420.888 146.146 421.896 146.146C422.904 146.146 423.73 145.796 424.374 145.096C425.018 144.396 425.34 143.416 425.34 142.156ZM464.471 130.312L449.309 165.34H439.103L445.067 152.824L435.197 130.312H445.571L450.023 142.324L454.181 130.312H464.471Z" fill="#1EBA10"/>
</svg>
