<svg width="226" height="139" viewBox="0 0 226 139" fill="none" xmlns="http://www.w3.org/2000/svg">
<g clip-path="url(#clip0)">
<path d="M57.8815 18.5425C57.6162 27.3153 55.8953 35.8142 53.3429 44.1979C51.579 49.9946 49.2453 55.5492 46.6891 61.0097C45.5935 63.3381 44.2197 65.5316 42.9434 67.7792C40.6215 71.872 38.5088 76.1142 35.8666 80.0037C33.6739 83.2402 32.7782 86.1455 34.2728 90.0318C35.8953 94.2338 36.691 98.7481 37.845 103.121C37.9169 103.382 38.0578 103.615 38.1572 103.848C38.8378 105.385 38.8935 105.412 39.9581 104.063C41.842 101.699 43.6001 99.2253 45.512 96.8881C47.4101 94.5649 47.9753 91.801 48.443 88.9829C49.3519 83.4437 50.9129 78.0766 52.4599 72.696C54.4603 65.7385 57.5172 59.2384 60.6714 52.7787C61.2398 51.6005 62.03 50.4612 62.975 49.5685C64.1666 48.4388 65.1398 48.8834 65.1989 50.5098C65.2565 52.0123 65.2732 53.5565 64.9846 55.0212C62.9268 65.6473 59.5916 75.8597 54.5204 85.4564C53.5713 87.2592 52.3999 88.9679 51.2281 90.649C49.8247 92.6636 48.8106 94.8532 48.6569 97.2817C48.467 100.207 48.4573 103.158 48.6133 106.08C48.6665 107.169 49.3286 108.265 49.8929 109.279C50.4857 110.362 51.2748 110.408 51.9698 109.422C52.7329 108.338 53.426 107.172 53.9525 105.953C54.6812 104.249 55.1737 102.438 55.8468 100.707C56.9778 97.8127 56.7395 94.9471 55.6026 92.1601C55.2187 91.199 55.4511 90.9345 56.3195 90.6356C57.4911 90.2231 58.6341 89.7281 59.7207 89.1373C60.5737 88.6869 61.2593 88.1141 61.51 86.9807C61.801 85.7365 62.6276 85.4105 63.7287 86.157C65.3596 87.284 66.866 87.1299 68.5184 86.395C68.9315 86.2113 69.5821 86.2457 70.013 86.4341C70.9444 86.8378 71.1071 87.815 70.2544 88.2931C67.5865 89.7972 66.4944 92.4565 65.1514 94.9392C64.5951 95.9519 63.8717 96.8697 63.2874 97.8551C63.138 98.1187 63.2253 98.5176 63.2014 98.8626C63.5054 98.8317 63.9075 98.9101 64.0994 98.7426C67.0451 96.0496 70.5786 93.9845 72.7267 90.4589C73.4202 89.3345 74.3364 88.3318 75.2528 87.3567C75.5676 87.0362 76.1759 86.9883 76.6583 86.8176C76.6772 87.2862 76.7795 87.7953 76.6736 88.2377C76.5673 88.6526 76.2951 89.0692 75.9801 89.3621C74.7885 90.4919 75.7744 90.826 76.5701 91.4793C77.5194 92.2689 77.8879 91.7961 78.4475 91.0868C81.6419 87.0811 83.5419 82.3585 85.9847 77.9335C88.9025 72.6484 91.8479 67.3629 94.905 62.1729C96.0329 60.2716 97.5227 58.5733 98.8873 56.8073C99.201 56.3903 99.6251 55.9445 100.08 55.7879C100.521 55.6315 101.227 55.6652 101.534 55.9377C101.814 56.1829 101.933 56.9676 101.743 57.3144C100.36 59.9079 98.9902 62.515 97.3979 64.9728C93.3832 71.1798 89.1178 77.2241 85.2283 83.4987C82.9844 87.1218 81.2558 91.0566 79.3322 94.8693C79.0207 95.4932 78.807 96.1987 78.6484 96.8899C78.5823 97.1802 78.7384 97.537 78.7833 97.8537C79.0579 97.6577 79.4021 97.5023 79.5929 97.2382C80.0019 96.6685 80.3412 96.0581 80.7083 95.4612C81.7281 93.7955 82.7199 92.1026 83.8092 90.4775C84.0407 90.1303 84.5787 89.9866 84.9912 89.7477C85.2457 90.2552 85.6939 90.7606 85.6994 91.2707C85.7284 92.6769 85.536 94.0855 85.5096 95.4923C85.4988 95.7682 85.7803 96.2202 86.0164 96.3004C86.2523 96.3668 86.7063 96.1275 86.8838 95.9049C88.6573 93.5693 90.6258 91.3556 91.3549 88.3968C91.4741 87.8991 91.6341 87.3458 91.962 86.9562C92.1805 86.6919 92.7052 86.5897 93.0788 86.5994C93.2172 86.598 93.4726 87.1881 93.434 87.4643C93.1652 89.4805 92.8132 91.4837 92.5166 93.4863C92.4907 93.6521 92.5616 93.8168 92.5911 93.9819C92.784 93.9109 93.1022 93.9075 93.1699 93.7689C94.2002 91.7997 95.2305 89.8305 96.1635 87.8211C96.4744 87.142 96.6461 86.3818 97.5757 86.62C98.4914 86.8583 98.4305 87.6312 98.2864 88.3773C98.2338 88.6399 98.112 88.8894 98.1148 89.1514C98.1051 89.5376 98.1783 89.9091 98.2102 90.2949C98.4834 89.9748 98.8263 89.6953 99.03 89.3346C99.4783 88.5714 99.8151 87.7266 100.277 86.977C101.012 85.7832 101.455 85.7922 102.611 86.4968C104.337 87.54 105.223 88.8542 105.08 90.9793C105.02 91.8211 105.749 92.7233 106.132 93.6017C106.803 92.9464 107.641 92.3858 108.117 91.6085C108.946 90.2344 109.469 88.6982 110.257 87.3108C110.867 86.2287 110.637 85.4176 109.745 84.7653C108.113 83.5694 106.617 82.0687 104.362 82.0792C104.016 82.0829 103.614 82.0045 103.362 81.8004C103.042 81.5556 102.857 81.144 102.618 80.8018C102.948 80.5638 103.303 80.1187 103.621 80.1429C106.972 80.3688 109.904 81.5369 111.872 84.3977C112.279 85 112.525 86.004 112.325 86.668C111.47 89.4627 110.753 92.3385 108.661 94.5811C106.568 96.8237 104.848 96.4561 103.807 93.5578C103.693 93.2281 103.579 92.8846 103.409 92.5693C103.31 92.3773 103.101 92.2554 102.947 92.0916C102.838 92.2169 102.715 92.3423 102.62 92.4813C102.565 92.5508 102.538 92.6476 102.512 92.7306C102.161 93.6031 101.982 94.9702 100.704 94.5151C99.4963 94.1006 100.202 92.8244 100.22 91.9004C100.231 91.6245 100.089 91.3364 100.017 91.0614C99.853 91.2424 99.6472 91.4101 99.5388 91.6181C98.7801 93.1155 98.0632 94.6401 97.2767 96.124C96.6528 97.289 95.936 97.5311 95.0267 96.6032C94.2715 95.853 93.9011 96.1465 93.2553 96.5672C91.6614 97.5909 91.6748 97.5494 90.3565 95.8951C90.2302 95.731 89.5523 95.7383 89.4019 95.9054C88.691 96.699 88.1058 97.6016 87.4089 98.4089C86.8213 99.0909 86.2325 99.6626 85.1328 99.0401C84.1027 98.4583 83.8589 97.6612 83.9722 96.6257C84.0103 96.3082 84.4078 95.9592 84.3498 95.7116C84.2488 95.3266 83.9265 94.9439 83.5919 94.7131C83.4665 94.6317 82.93 94.9133 82.7805 95.1631C81.7735 96.7321 80.7945 98.3284 79.8434 99.9382C78.7018 101.853 77.5462 103.755 76.4881 105.711C75.9048 106.793 75.5024 107.969 75.0166 109.105C74.8143 109.59 74.6679 110.129 74.3542 110.546C74.1222 110.852 73.6671 110.981 73.3096 111.192C73.1257 110.821 72.7479 110.425 72.7998 110.108C73.0358 108.892 73.3687 107.689 73.7573 106.512C74.7217 103.565 75.686 100.604 76.7616 97.6962C77.1378 96.6579 77.3797 95.9935 76.1142 95.4004C75.5303 95.1309 75.2578 94.2375 74.8361 93.6215C74.1375 94.2771 73.4111 94.9193 72.7267 95.6023C72.3572 95.9786 71.9465 96.3829 71.7578 96.8538C71.2321 98.1418 70.5017 98.4117 69.2763 97.6803C68.9839 97.5041 68.3218 97.6905 67.9784 97.9287C67.0448 98.6006 66.2099 99.4369 65.2764 100.123C64.5625 100.641 63.7935 101.173 62.9661 101.43C62.2903 101.63 61.4856 101.418 60.7244 101.399C60.8001 100.722 60.681 99.9377 60.9796 99.3967C62.4182 96.8026 63.5092 94.0468 64.8924 91.4396C65.7061 89.914 65.5095 89.6403 63.6975 89.6874C63.0336 89.7084 62.3166 89.9367 61.739 90.2601C60.4872 90.9354 58.8883 91.4904 58.222 92.5732C57.6508 93.4894 58.2213 95.0828 58.2353 96.3788C58.2953 100.667 56.8294 104.585 55.0578 108.382C54.4763 109.629 53.4784 110.757 52.5069 111.76C51.4122 112.889 49.5384 112.33 48.7342 110.891C46.9 107.587 46.4467 104.035 46.6698 100.337C46.6932 99.9366 46.4674 99.5254 46.3662 99.1266C46.0366 99.3508 45.637 99.5067 45.4051 99.8126C43.7674 101.912 42.1579 104.053 40.5342 106.167C39.8792 107.015 39.6815 107.927 40.1072 108.915C40.8874 110.7 41.6539 112.498 42.5443 114.239C43.0673 115.268 43.7692 116.212 44.4295 117.142C44.9071 117.813 45.1906 118.444 46.4223 118.472C48.18 118.522 49.3626 121.709 48.327 123.181C48.0271 123.598 47.1743 124.063 46.7991 123.915C45.9657 123.607 44.6584 122.987 44.6104 122.38C44.2982 119.088 41.6749 117.02 40.5376 114.192C40.1395 113.203 39.6037 112.272 39.1093 111.325C38.488 110.16 37.9619 110.124 37.3107 111.331C36.9443 111.997 36.9257 112.838 36.6847 113.585C36.471 114.291 36.1191 115.026 35.2024 114.691C34.4107 114.41 34.1671 113.626 34.5191 112.905C35.237 111.477 36.0243 110.076 36.8815 108.729C37.5212 107.744 37.7869 106.72 37.2363 105.706C35.1045 101.744 34.4205 97.3247 33.1435 93.0914C32.6844 91.5657 32.3354 89.9975 31.9176 88.4576C31.8313 88.1552 31.621 87.8954 31.4796 87.6074C31.191 87.7898 30.8465 87.9176 30.6416 88.168C28.6219 90.7683 26.658 93.4094 24.5966 95.9826C21.5524 99.8074 18.7877 103.891 14.7795 106.844C13.7088 107.628 12.5683 108.357 11.3566 108.908C8.45162 110.235 5.75534 109.106 4.1209 106.366C2.20489 103.173 1.87637 99.647 1.56169 96.1203C1.21741 92.4147 0.997337 88.6802 0.971239 84.9712C0.928664 79.7317 1.10729 74.4761 1.25839 69.2346C1.26658 68.7105 1.68623 67.851 2.04503 67.7644C2.61104 67.648 3.62344 67.8716 3.87691 68.2825C5.15852 70.3785 7.08962 71.1161 9.36464 71.6707C11.1403 72.1067 12.7838 73.1231 14.4667 73.9324C14.703 74.0401 14.9712 74.5337 14.9041 74.7275C14.8237 74.9627 14.3427 75.2713 14.107 75.2187C12.7201 74.9164 11.3193 74.6006 9.98592 74.1185C8.23586 73.4893 6.55318 72.6938 4.82989 71.9815C4.13492 71.6857 3.83428 72.0336 3.74442 72.6827C3.60264 73.6495 3.39168 74.617 3.31907 75.583C2.71154 83.408 2.69887 91.2267 3.64045 99.0074C3.92883 101.376 4.70066 103.671 6.18874 105.668C7.63458 107.596 8.82742 107.873 10.9598 106.747C14.1652 105.044 16.7134 102.7 19.0214 99.8898C22.7497 95.3544 26.7991 91.0913 29.9828 86.0929C30.6631 85.0238 30.985 84.0827 30.8476 82.8845C30.3425 78.3808 29.7821 73.8778 29.3878 69.373C29.198 67.1687 29.3124 64.9474 29.3162 62.7273C29.3205 61.8448 29.4216 60.9474 29.4121 60.065C29.3661 53.226 30.4983 46.5812 31.9897 39.8912C34.2073 29.9804 37.8432 20.7163 42.6873 11.8666C44.5191 8.52368 46.462 5.22093 49.7306 2.96567C52.7246 0.906421 55.4864 1.69025 56.7267 5.09662C58.0668 8.76392 58.0387 12.5838 58.0798 16.403C58.0184 17.1207 57.9293 17.8387 57.8815 18.5425ZM30.959 64.9573C31.104 66.8586 31.2513 68.9806 31.4264 71.1023C31.6958 74.2847 31.9791 77.4669 32.304 80.6487C32.3349 80.9518 32.6145 81.2245 32.7837 81.5123C33.0166 81.3029 33.3332 81.1479 33.4827 80.898C36.2807 76.0555 39.1481 71.2398 41.8347 66.3294C43.5306 63.2086 44.7951 59.858 46.5467 56.7779C48.8959 52.6572 50.384 48.2287 51.9272 43.7857C53.7924 38.4016 54.7699 32.8065 55.8723 27.2513C56.1479 25.8694 56.3265 24.461 56.4082 23.0536C56.5488 20.6942 56.4678 18.3095 56.7052 15.949C57.0053 12.9811 56.6836 10.0888 55.9749 7.22826C55.758 6.36187 55.8436 5.31297 54.5115 4.955C52.9989 4.53003 51.417 4.10581 50.1403 5.02965C48.6576 6.10738 47.2055 7.44678 46.2534 8.97384C39.8882 19.1775 35.5237 30.1593 33.0773 41.9616C31.5121 49.5074 31.3449 57.1071 30.959 64.9573ZM63.8122 54.0824C63.7568 54.0692 63.7013 54.056 63.6458 54.0428C63.6706 53.7806 63.723 53.5042 63.7064 53.2424C63.6897 52.9806 63.604 52.7333 63.5322 52.4859C63.2573 52.6543 62.8708 52.7412 62.735 52.9771C61.6757 54.8224 60.5747 56.6545 59.6545 58.5673C57.1241 63.8482 55.1634 69.3575 53.4941 74.9463C52.2254 79.1932 51.2344 83.5199 50.1601 87.8337C50.0537 88.2348 50.2248 88.7018 50.2709 89.1287C50.6001 88.8632 51.0406 88.6516 51.2307 88.3186C52.7779 85.5303 54.4641 82.7957 55.761 79.886C58.2327 74.2885 60.3986 68.5703 61.8564 62.6114C62.5455 59.791 63.165 56.93 63.8122 54.0824Z" fill="black"/>
<path d="M131.857 105.556C132.269 103.924 132.569 102.252 133.147 100.688C133.698 99.1929 133.906 97.9358 133.087 96.4002C132.31 94.9469 131.752 93.2155 132.828 91.5768C133.059 91.2158 133.625 91.0718 134.037 90.8329C134.166 91.2039 134.377 91.5739 134.409 91.9596C134.455 92.4004 134.308 92.8432 134.299 93.2846C134.3 93.4363 134.427 93.6004 134.497 93.7513C134.676 93.6253 134.938 93.5397 135.019 93.3734C135.249 92.9021 135.451 92.4035 135.598 91.8917C138.092 83.1776 140.793 74.5027 142.981 65.723C144.308 60.3999 144.774 54.8791 145.725 49.4497C146.911 42.6251 148.18 35.8271 149.449 29.0154C149.514 28.6699 149.954 28.3894 150.213 28.0833C150.452 28.3979 150.856 28.6831 150.887 29.0137C150.98 29.8814 151.031 30.7909 150.874 31.6476C149.504 39.3429 148.107 47.0248 146.695 54.7206C146.277 56.9865 145.817 59.2529 145.413 61.5187C145.361 61.8364 145.475 62.1937 145.52 62.5379C145.781 62.3145 146.125 62.1453 146.288 61.8678C148.585 58.0648 150.673 54.1124 153.194 50.4587C155.564 47.0272 158.171 43.7035 161.072 40.7214C163.097 38.645 165.822 37.2505 168.79 36.6808C169.55 36.5347 170.394 36.567 171.157 36.738C173.015 37.1731 173.791 38.5161 173.313 40.369C172.542 43.3144 170.699 45.6232 168.591 47.7005C165.675 50.5725 162.689 53.3901 159.647 56.1255C157.742 57.8421 155.642 59.3539 153.653 60.9749C153.036 61.478 152.46 62.0219 151.927 62.6206C150.382 64.3195 150.517 65.2833 152.658 66.2255C154.521 67.0466 156.559 67.4935 158.422 68.3146C160.785 69.3371 163.108 70.4704 165.363 71.701C169.955 74.2025 171.184 80.3944 168.647 85.0411C167.073 87.94 164.689 90.1306 162.108 92.0062C158.717 94.4558 155.244 96.9339 151.471 98.6292C146.872 100.706 141.88 102.207 136.719 100.898C135.04 100.475 134.77 101.043 134.423 102.246C134.129 103.27 133.781 104.28 133.39 105.277C133.282 105.54 132.938 105.723 132.705 105.933C132.413 105.798 132.135 105.677 131.857 105.556ZM141.242 99.5115C141.864 99.4221 143.122 99.3672 144.308 99.0372C148.336 97.8907 152.306 96.538 155.865 94.2521C159.836 91.6997 163.85 89.2571 166.559 85.1877C169.146 81.2989 168.356 75.9848 164.705 73.6247C162.615 72.2683 160.594 70.8698 158.11 70.1933C156.057 69.6362 153.961 68.9969 152.109 67.9827C149.173 66.3734 147.787 63.6304 150.931 61.3352C152.222 60.3974 153.4 59.2953 154.676 58.3302C155.787 57.4908 157.109 56.8699 158.109 55.9214C161.012 53.1599 163.874 50.3437 166.581 47.405C168.141 45.7197 169.448 43.7889 170.742 41.8721C171.164 41.2608 171.238 40.3775 171.354 39.5903C171.483 38.7202 170.992 38.1463 170.122 38.2936C168.727 38.5292 167.291 38.7653 165.996 39.3032C162.704 40.6625 160.241 43.2262 158.181 45.9373C154.17 51.2204 150.216 56.5718 147.376 62.642C145.644 66.3424 143.441 69.8272 143.043 74.0372C142.981 74.6446 142.668 75.2133 142.481 75.8083C140.396 82.5875 138.269 89.3533 136.253 96.1593C135.639 98.2619 136.564 99.3826 138.71 99.5388C139.361 99.5869 139.983 99.5251 141.242 99.5115Z" fill="black"/>
<path d="M224.789 74.5085C222.607 74.8353 220.423 75.107 218.269 75.5025C212.663 76.5281 207.057 77.54 201.48 78.7169C198.139 79.4148 197.879 79.6934 197.805 83.045C197.741 86.1206 198.051 89.1923 198.264 92.265C198.313 92.9539 198.542 93.6823 198.894 94.2852C199.627 95.5459 201.136 95.6538 201.953 94.4178C202.634 93.4038 202.981 92.1728 203.522 91.0639C203.658 90.8004 203.974 90.6316 204.221 90.4083C204.403 90.6821 204.781 91.009 204.714 91.2165C204.274 92.8346 204.016 94.5748 203.188 95.9902C201.789 98.4046 198.548 98.1499 197.469 95.5416C196.744 93.7706 196.543 91.7871 196.135 89.8886C196.062 89.5584 196.21 89.1707 196.165 88.8265C196.074 88.0691 195.927 87.3122 195.809 86.5551C195.317 87.112 194.783 87.6417 194.36 88.253C193.338 89.6981 192.554 91.3612 191.336 92.6016C190.254 93.7026 188.797 94.5732 187.337 95.1267C185.642 95.7655 184.288 94.7045 184.324 92.8701C184.378 90.2082 184.682 87.5574 184.861 84.8942C184.897 84.4387 184.809 83.9709 184.777 83.5162C184.393 83.8512 183.925 84.1321 183.639 84.535C182.712 85.8274 181.925 87.2148 180.956 88.4801C179.987 89.7315 178.963 90.9698 177.812 92.0439C176.442 93.3135 176.165 93.22 175.067 91.5219C174.603 90.8099 174.31 90.5511 173.85 91.5212C173.349 92.5608 172.806 93.5871 172.208 94.5725C171.746 95.3359 170.907 95.7449 170.154 95.2841C169.681 94.9996 169.271 94.1491 169.292 93.5698C169.4 90.7418 169.632 87.9125 169.934 85.0825C169.971 84.6822 170.701 84.3434 171.098 83.9806C171.325 84.4883 171.759 84.9939 171.737 85.4905C171.644 87.16 171.371 88.8039 171.21 90.4741C171.184 90.6812 171.422 90.9131 171.535 91.1187C171.741 91.0062 172.017 90.9343 172.14 90.7537C172.957 89.5866 173.761 88.4196 174.537 87.2254C174.822 86.7811 174.997 86.2552 175.255 85.7974C175.58 85.2009 175.902 84.2598 176.752 84.8436C177.129 85.1015 177.236 86.107 177.076 86.6741C176.797 87.6699 176.142 88.587 176.997 89.5982C177.655 89.0534 178.37 88.5631 178.958 87.95C181.092 85.6932 182.85 83.206 183.703 80.1769C183.769 79.928 183.808 79.6105 183.986 79.4569C186.958 76.6808 187.247 72.6512 188.815 69.2146C188.882 69.0622 188.852 68.8557 188.906 68.6897C189.175 67.9284 189.496 66.9872 190.497 67.3763C191.372 67.7254 190.897 68.5303 190.683 69.2221C189.827 72.0029 189.027 74.797 188.213 77.5912C187.92 78.5872 187.953 79.097 189.305 78.8066C191.128 78.4147 193.008 78.2704 194.845 78.0024C196.102 77.8234 196.857 77.2913 197.049 75.8138C197.445 72.8034 198.536 69.9787 199.848 67.2481C199.997 66.9293 200.131 66.5556 200.392 66.3459C200.639 66.1364 201.093 65.9385 201.343 66.0323C201.691 66.1803 202.179 66.5887 202.169 66.8922C202.165 67.8574 202.065 68.8513 201.813 69.7779C201.293 71.6589 200.621 73.5001 200.046 75.3678C199.659 76.6406 199.771 76.8048 201.028 76.5983C205.255 75.9185 209.466 75.1423 213.693 74.5452C216.594 74.1417 219.539 73.9307 222.47 73.7337C223.231 73.6841 224.023 73.9927 224.785 74.15C224.786 74.2327 224.788 74.3706 224.789 74.5085ZM185.917 89.185C186.014 89.2116 186.111 89.2243 186.208 89.2509C186.212 89.6093 186.174 89.9683 186.233 90.3124C186.354 91.2349 186.516 92.1571 186.664 93.0793C187.586 92.6282 188.565 92.2591 189.431 91.712C189.939 91.4032 190.321 90.8475 190.675 90.3473C191.602 89.0411 192.57 87.7621 193.344 86.3748C194.335 84.5991 195.173 82.7424 195.997 80.8857C196.253 80.29 196.218 79.5872 195.182 79.75C193 80.1044 190.817 80.4589 188.621 80.7859C187.765 80.9054 187.425 81.4468 187.267 82.1932C186.821 84.5421 186.376 86.8635 185.917 89.185Z" fill="black"/>
<path d="M131.857 105.556C132.135 105.677 132.413 105.798 132.678 105.919C132.684 106.512 132.801 107.145 132.669 107.712C132.179 109.689 131.591 111.64 131.031 113.604C130.858 114.226 130.602 114.932 129.796 114.568C129.476 114.42 129.163 113.638 129.27 113.292C130.086 110.691 130.139 107.836 131.857 105.556Z" fill="black"/>
<path d="M185.917 89.185C186.362 86.8637 186.808 84.5423 187.267 82.2207C187.411 81.4746 187.751 80.9331 188.622 80.8134C190.804 80.5004 192.986 80.1321 195.182 79.7776C196.218 79.6147 196.254 80.3176 195.997 80.9133C195.173 82.7699 194.335 84.6267 193.344 86.4024C192.571 87.7896 191.602 89.0687 190.675 90.3748C190.321 90.8751 189.939 91.417 189.431 91.7396C188.565 92.2867 187.601 92.6556 186.665 93.1069C186.517 92.1846 186.354 91.2625 186.234 90.3399C186.189 89.9957 186.212 89.6369 186.209 89.2784C186.125 89.238 186.028 89.2114 185.917 89.185Z" fill="white"/>
</g>
<path d="M137.296 118.85L137.296 126.396L138.027 126.396L138.027 127.605L135.089 127.605L135.089 126.396L135.834 126.396L135.834 118.85L135.089 118.85L135.089 117.641L138.027 117.641L138.027 118.85L137.296 118.85ZM141.239 127.605L140.157 127.605L140.157 117.346L141.52 117.346L141.52 121.604C141.782 121.323 142.087 121.108 142.433 120.958C142.78 120.798 143.183 120.719 143.642 120.719C144.11 120.719 144.541 120.813 144.935 121C145.338 121.178 145.684 121.426 145.975 121.745C146.265 122.063 146.49 122.438 146.649 122.869C146.818 123.3 146.902 123.759 146.902 124.246C146.902 124.733 146.818 125.192 146.649 125.623C146.49 126.054 146.265 126.429 145.975 126.748C145.684 127.066 145.338 127.319 144.935 127.507C144.541 127.685 144.11 127.774 143.642 127.774C143.202 127.774 142.803 127.699 142.447 127.549C142.101 127.389 141.792 127.174 141.52 126.902L141.239 127.605ZM143.53 121.956C143.258 121.956 143 121.998 142.757 122.082C142.513 122.157 142.298 122.288 142.11 122.475C141.932 122.653 141.792 122.888 141.689 123.178C141.586 123.469 141.534 123.825 141.534 124.246C141.534 124.64 141.586 124.982 141.689 125.272C141.792 125.563 141.932 125.806 142.11 126.003C142.298 126.19 142.513 126.331 142.757 126.424C143 126.518 143.258 126.565 143.53 126.565C143.801 126.565 144.059 126.504 144.303 126.382C144.546 126.26 144.757 126.097 144.935 125.89C145.113 125.675 145.253 125.427 145.356 125.146C145.46 124.865 145.511 124.565 145.511 124.246C145.511 123.928 145.46 123.628 145.356 123.347C145.253 123.066 145.113 122.822 144.935 122.616C144.757 122.41 144.546 122.251 144.303 122.138C144.059 122.016 143.801 121.956 143.53 121.956ZM152.369 122.124C152.304 122.096 152.238 122.068 152.172 122.04C152.116 122.021 152.051 122.002 151.976 121.984C151.901 121.965 151.821 121.956 151.737 121.956C151.465 121.956 151.212 122.002 150.978 122.096C150.744 122.18 150.542 122.297 150.374 122.447C150.205 122.597 150.069 122.775 149.966 122.981C149.872 123.178 149.826 123.389 149.826 123.614L149.811 127.605L148.448 127.605L148.448 120.873L149.53 120.873L149.811 121.618C149.999 121.347 150.242 121.131 150.542 120.972C150.851 120.803 151.236 120.719 151.695 120.719C151.994 120.719 152.336 120.761 152.721 120.845L152.369 122.124ZM159.999 120.873L159.999 127.605L158.847 127.605L158.636 126.832C158.402 127.141 158.102 127.375 157.737 127.535C157.371 127.694 157.001 127.774 156.626 127.774C156.158 127.774 155.718 127.685 155.305 127.507C154.902 127.319 154.546 127.066 154.237 126.748C153.937 126.429 153.699 126.054 153.521 125.623C153.343 125.192 153.254 124.733 153.254 124.246C153.254 123.759 153.343 123.3 153.521 122.869C153.699 122.438 153.937 122.063 154.237 121.745C154.546 121.426 154.902 121.178 155.305 121C155.718 120.813 156.158 120.719 156.626 120.719C157.001 120.719 157.362 120.794 157.708 120.944C158.055 121.084 158.364 121.309 158.636 121.618L158.847 120.873L159.999 120.873ZM156.626 126.565C156.898 126.565 157.156 126.504 157.399 126.382C157.643 126.26 157.854 126.097 158.032 125.89C158.21 125.675 158.35 125.427 158.453 125.146C158.556 124.865 158.608 124.565 158.608 124.246C158.608 123.928 158.556 123.628 158.453 123.347C158.35 123.066 158.21 122.822 158.032 122.616C157.854 122.401 157.643 122.232 157.399 122.11C157.156 121.988 156.898 121.927 156.626 121.927C156.355 121.927 156.097 121.988 155.853 122.11C155.61 122.232 155.399 122.401 155.221 122.616C155.043 122.822 154.902 123.066 154.799 123.347C154.696 123.628 154.645 123.928 154.645 124.246C154.645 124.565 154.696 124.865 154.799 125.146C154.902 125.427 155.043 125.675 155.221 125.89C155.399 126.097 155.61 126.26 155.853 126.382C156.097 126.504 156.355 126.565 156.626 126.565ZM162.75 127.605L161.387 127.605L161.387 117.346L162.75 117.346L162.75 121.492C163.003 121.211 163.265 121.014 163.537 120.902C163.818 120.78 164.141 120.719 164.506 120.719C164.975 120.719 165.392 120.813 165.757 121C166.132 121.178 166.451 121.426 166.713 121.745C166.975 122.063 167.172 122.438 167.303 122.869C167.444 123.3 167.514 123.759 167.514 124.246L167.514 127.605L166.137 127.605L166.137 124.246C166.137 123.928 166.09 123.628 165.996 123.347C165.912 123.066 165.79 122.822 165.631 122.616C165.481 122.41 165.303 122.251 165.097 122.138C164.9 122.016 164.684 121.956 164.45 121.956C164.254 121.956 164.057 121.998 163.86 122.082C163.663 122.157 163.481 122.283 163.312 122.461C163.153 122.639 163.017 122.874 162.904 123.164C162.801 123.455 162.75 123.806 162.75 124.218L162.75 127.605ZM170.423 127.605L169.06 127.605L169.06 120.873L170.409 120.873L170.423 127.605ZM169.734 119.412C169.491 119.412 169.284 119.328 169.116 119.159C168.947 118.981 168.863 118.77 168.863 118.527C168.863 118.283 168.947 118.077 169.116 117.908C169.284 117.74 169.491 117.655 169.734 117.655C169.978 117.655 170.184 117.74 170.353 117.908C170.521 118.077 170.605 118.283 170.605 118.527C170.605 118.77 170.521 118.981 170.353 119.159C170.184 119.328 169.978 119.412 169.734 119.412ZM173.317 127.605L171.954 127.605L171.954 120.873L173.036 120.873L173.317 121.45C173.486 121.253 173.687 121.084 173.921 120.944C174.156 120.794 174.441 120.719 174.779 120.719C174.91 120.719 175.055 120.738 175.214 120.775C175.383 120.803 175.552 120.859 175.72 120.944C175.898 121.019 176.067 121.126 176.226 121.267C176.385 121.398 176.521 121.571 176.634 121.787C176.793 121.496 177.032 121.248 177.35 121.042C177.678 120.827 178.025 120.719 178.39 120.719C178.634 120.719 178.892 120.756 179.163 120.831C179.435 120.906 179.688 121.047 179.922 121.253C180.156 121.459 180.349 121.745 180.498 122.11C180.648 122.475 180.723 122.949 180.723 123.529L180.723 127.605L179.444 127.605L179.444 123.515C179.444 122.935 179.323 122.532 179.079 122.307C178.845 122.073 178.531 121.956 178.137 121.956C177.838 121.956 177.575 122.082 177.35 122.335C177.126 122.588 177.013 122.986 177.013 123.529L177.013 127.605L175.734 127.605L175.734 123.515C175.734 122.935 175.613 122.532 175.369 122.307C175.135 122.073 174.821 121.956 174.427 121.956C174.146 121.956 173.898 122.063 173.683 122.279C173.476 122.494 173.355 122.831 173.317 123.291L173.317 127.605ZM193.048 124.822C193.048 125.206 192.973 125.567 192.823 125.904C192.683 126.242 192.486 126.537 192.233 126.79C191.98 127.043 191.68 127.244 191.334 127.394C190.997 127.535 190.636 127.605 190.252 127.605L185.994 127.605L185.994 117.641L189.886 117.641C190.224 117.641 190.542 117.707 190.842 117.838C191.142 117.969 191.404 118.147 191.629 118.372C191.854 118.597 192.032 118.864 192.163 119.173C192.294 119.473 192.36 119.796 192.36 120.143C192.36 120.574 192.289 120.967 192.149 121.323C192.008 121.67 191.779 121.965 191.46 122.208C191.994 122.405 192.392 122.742 192.655 123.22C192.917 123.689 193.048 124.223 193.048 124.822ZM187.455 121.674C187.83 121.684 188.177 121.688 188.495 121.688L189.9 121.688C190.256 121.688 190.556 121.557 190.8 121.295C191.043 121.023 191.165 120.7 191.165 120.325C191.165 119.941 191.043 119.618 190.8 119.356C190.556 119.093 190.256 118.962 189.9 118.962L187.455 118.962L187.455 121.674ZM187.455 126.242C187.521 126.251 187.666 126.256 187.891 126.256L190.252 126.256C190.448 126.256 190.631 126.214 190.8 126.129C190.978 126.045 191.132 125.933 191.264 125.792C191.395 125.642 191.498 125.469 191.573 125.272C191.648 125.075 191.685 124.865 191.685 124.64C191.685 124.415 191.648 124.209 191.573 124.021C191.498 123.825 191.395 123.656 191.264 123.515C191.132 123.366 190.978 123.248 190.8 123.164C190.631 123.08 190.448 123.038 190.252 123.038L187.455 123.038L187.455 126.242ZM198.973 127.001C198.739 127.216 198.463 127.394 198.144 127.535C197.835 127.675 197.488 127.745 197.104 127.745C196.861 127.745 196.584 127.708 196.275 127.633C195.966 127.567 195.675 127.432 195.404 127.225C195.141 127.019 194.917 126.738 194.729 126.382C194.551 126.017 194.462 125.544 194.462 124.963L194.462 120.873L195.755 120.873L195.755 124.963C195.755 125.253 195.797 125.502 195.882 125.708C195.975 125.904 196.092 126.064 196.233 126.186C196.383 126.307 196.551 126.396 196.739 126.453C196.926 126.509 197.118 126.537 197.315 126.537C197.465 126.537 197.634 126.509 197.821 126.453C198.018 126.396 198.2 126.307 198.369 126.186C198.538 126.054 198.678 125.89 198.791 125.694C198.912 125.497 198.973 125.258 198.973 124.977L198.973 120.873L200.336 120.873L200.336 127.605L199.254 127.605L198.973 127.001ZM205.595 127.591C205.21 127.722 204.831 127.802 204.456 127.83C204.081 127.858 203.744 127.802 203.444 127.661C203.145 127.53 202.901 127.296 202.714 126.958C202.526 126.612 202.433 126.129 202.433 125.511L202.433 122.096L201.449 122.096L201.449 121.154L202.433 120.873L202.433 119.075L203.796 119.075L203.796 120.873L205.623 120.873L205.623 122.096L203.796 122.096L203.796 125.722C203.796 125.947 203.819 126.125 203.866 126.256C203.922 126.387 204.011 126.485 204.133 126.551C204.255 126.617 204.414 126.649 204.611 126.649C204.808 126.649 205.046 126.631 205.328 126.593L205.595 127.591ZM210.398 127.591C210.014 127.722 209.634 127.802 209.26 127.83C208.885 127.858 208.548 127.802 208.248 127.661C207.948 127.53 207.704 127.296 207.517 126.958C207.33 126.612 207.236 126.129 207.236 125.511L207.236 122.096L206.252 122.096L206.252 121.154L207.236 120.873L207.236 119.075L208.599 119.075L208.599 120.873L210.426 120.873L210.426 122.096L208.599 122.096L208.599 125.722C208.599 125.947 208.623 126.125 208.669 126.256C208.726 126.387 208.815 126.485 208.936 126.551C209.058 126.617 209.217 126.649 209.414 126.649C209.611 126.649 209.85 126.631 210.131 126.593L210.398 127.591Z" fill="black"/>
<defs>
<clipPath id="clip0">
<rect y="2.41168" width="224" height="122" transform="rotate(-0.616849 0 2.41168)" fill="white"/>
</clipPath>
</defs>
</svg>
