<svg width="951" height="966" viewBox="0 0 951 966" fill="none" xmlns="http://www.w3.org/2000/svg">
<rect x="257" y="434" width="319" height="245" fill="#397377"/>
<path fill-rule="evenodd" clip-rule="evenodd" d="M571.169 644.876C543.915 522.223 422.392 444.887 299.738 472.141C284.466 475.534 269.896 480.389 256.143 486.526C249.207 469.919 243.636 452.47 239.595 434.285C202.697 268.231 307.399 103.707 473.453 66.8092C639.506 29.9115 804.031 134.613 840.929 300.667C877.826 466.721 773.125 631.245 607.071 668.143C596.584 670.473 586.104 672.238 575.661 673.459C574.779 663.968 573.291 654.426 571.169 644.876ZM575.661 673.459C586.107 785.881 511.538 891.175 398.434 916.307C275.78 943.561 154.256 866.225 127.002 743.572C103.142 636.191 159.447 529.676 256.143 486.526C308.545 611.995 438.854 689.454 575.661 673.459Z" fill="#4A9973"/>
<path d="M553.462 192.425H567.407L549.755 255H533.163L520.277 212.901L507.391 255H490.975L473.324 192.425H487.269L499.625 239.731L513.834 192.425H526.72L541.018 240.084L553.462 192.425ZM597.208 209.988C600.091 209.988 602.768 210.606 605.239 211.842C607.769 213.018 609.946 214.666 611.77 216.784C613.594 218.843 615.007 221.285 616.007 224.11C617.066 226.875 617.595 229.846 617.595 233.024V255H605.681V246.968C605.681 244.733 605.681 242.438 605.681 240.084C605.739 237.672 605.769 235.613 605.769 233.906C605.769 232.259 605.504 230.641 604.975 229.052C604.445 227.463 603.71 226.081 602.768 224.904C601.827 223.668 600.709 222.697 599.414 221.991C598.179 221.226 596.855 220.844 595.443 220.844C594.089 220.844 592.795 221.109 591.559 221.638C590.324 222.109 589.235 222.845 588.294 223.845C587.352 224.786 586.587 225.992 585.999 227.463C585.47 228.934 585.205 230.67 585.205 232.671V255H572.937V190.571H585.205V214.578C586.735 213.107 588.47 211.989 590.412 211.224C592.413 210.4 594.678 209.988 597.208 209.988ZM656.9 211.224H670.227L642.602 272.475H629.275L640.131 248.381L621.597 211.224H635.188L646.574 234.083L656.9 211.224ZM515.423 298.425H531.574L509.245 331.698V361H495.918V331.698L473.589 298.425H489.74L502.626 317.665L515.423 298.425ZM548.272 315.988C551.391 315.988 554.333 316.606 557.098 317.842C559.863 319.018 562.276 320.666 564.335 322.784C566.395 324.843 568.013 327.285 569.189 330.11C570.425 332.875 571.043 335.846 571.043 339.024C571.043 342.201 570.425 345.202 569.189 348.026C568.013 350.791 566.395 353.233 564.335 355.351C562.276 357.411 559.863 359.058 557.098 360.294C554.333 361.471 551.391 362.059 548.272 362.059C545.095 362.059 542.124 361.471 539.358 360.294C536.593 359.058 534.18 357.411 532.121 355.351C530.062 353.233 528.414 350.791 527.179 348.026C526.002 345.202 525.413 342.201 525.413 339.024C525.413 335.846 526.002 332.875 527.179 330.11C528.414 327.285 530.062 324.843 532.121 322.784C534.18 320.666 536.593 319.018 539.358 317.842C542.124 316.606 545.095 315.988 548.272 315.988ZM548.272 351.38C549.743 351.38 551.096 351.086 552.332 350.497C553.627 349.909 554.744 349.114 555.686 348.114C556.686 347.055 557.451 345.819 557.981 344.407C558.569 342.936 558.863 341.318 558.863 339.553C558.863 337.788 558.569 336.141 557.981 334.611C557.451 333.081 556.686 331.757 555.686 330.639C554.744 329.462 553.627 328.55 552.332 327.903C551.096 327.197 549.743 326.844 548.272 326.844C546.801 326.844 545.419 327.197 544.124 327.903C542.83 328.55 541.682 329.462 540.682 330.639C539.741 331.757 538.976 333.081 538.387 334.611C537.858 336.141 537.593 337.788 537.593 339.553C537.593 341.318 537.858 342.936 538.387 344.407C538.976 345.819 539.741 347.055 540.682 348.114C541.682 349.114 542.83 349.909 544.124 350.497C545.419 351.086 546.801 351.38 548.272 351.38ZM605.13 317.224H617.309V361H606.895L605.13 357.646C603.718 358.646 602.1 359.47 600.276 360.117C598.51 360.706 596.598 361 594.539 361C592.95 361 591.126 360.765 589.067 360.294C587.066 359.823 585.183 358.941 583.418 357.646C581.653 356.352 580.153 354.557 578.917 352.262C577.74 349.968 577.152 346.996 577.152 343.348V317.224H589.42V342.907C589.42 344.26 589.626 345.408 590.038 346.349C590.508 347.29 591.097 348.055 591.803 348.644C592.568 349.173 593.421 349.585 594.362 349.879C595.304 350.115 596.274 350.232 597.275 350.232C598.04 350.232 598.863 350.115 599.746 349.879C600.687 349.585 601.541 349.144 602.305 348.555C603.129 347.967 603.806 347.202 604.335 346.261C604.865 345.319 605.13 344.201 605.13 342.907V317.224ZM648.109 317.224C649.756 317.224 651.58 317.459 653.581 317.93C655.581 318.401 657.464 319.283 659.229 320.578C660.994 321.872 662.465 323.667 663.642 325.961C664.878 328.256 665.495 331.227 665.495 334.875V361H653.228V335.317C653.228 333.963 652.992 332.816 652.522 331.875C652.11 330.933 651.521 330.198 650.756 329.668C650.05 329.08 649.227 328.668 648.285 328.433C647.344 328.138 646.402 327.991 645.461 327.991C644.696 327.991 643.843 328.138 642.901 328.433C642.019 328.668 641.166 329.08 640.342 329.668C639.577 330.257 638.93 331.022 638.4 331.963C637.871 332.904 637.606 334.022 637.606 335.317V361H625.426V317.224H635.841L637.606 320.578C639.018 319.577 640.607 318.783 642.372 318.195C644.137 317.547 646.049 317.224 648.109 317.224ZM707.419 317.224H717.834V346.173C717.834 349.526 717.775 352.527 717.657 355.175C717.599 357.764 717.393 360.088 717.04 362.147C716.687 364.265 716.098 366.148 715.274 367.796C714.509 369.443 713.421 370.973 712.009 372.385C709.42 374.915 706.507 376.651 703.271 377.592C700.094 378.534 696.74 379.005 693.21 379.005C690.209 379.005 687.385 378.651 684.737 377.945C682.089 377.239 679.706 376.269 677.588 375.033V363.648C678.118 364.471 678.853 365.207 679.795 365.854C680.795 366.501 681.913 367.06 683.148 367.531C684.443 368.002 685.796 368.355 687.208 368.59C688.679 368.884 690.15 369.031 691.621 369.031C693.563 369.031 695.387 368.767 697.093 368.237C698.8 367.766 700.271 366.972 701.506 365.854C702.801 364.736 703.801 363.324 704.507 361.618C705.272 359.97 705.654 357.94 705.654 355.528V354.645C703.948 356.175 701.977 357.411 699.741 358.352C697.505 359.235 695.063 359.676 692.416 359.676C689.474 359.676 686.738 359.117 684.208 357.999C681.736 356.822 679.589 355.263 677.765 353.321C675.941 351.321 674.499 348.997 673.44 346.349C672.44 343.642 671.94 340.789 671.94 337.788C671.94 334.787 672.44 331.963 673.44 329.315C674.499 326.667 675.941 324.373 677.765 322.431C679.589 320.431 681.736 318.871 684.208 317.753C686.738 316.577 689.474 315.988 692.416 315.988C695.181 315.988 697.682 316.371 699.917 317.136C702.153 317.842 704.066 318.989 705.654 320.578L707.419 317.224ZM694.887 348.82C696.77 348.82 698.388 348.497 699.741 347.849C701.094 347.143 702.212 346.261 703.095 345.202C703.977 344.143 704.625 342.966 705.036 341.671C705.448 340.377 705.654 339.112 705.654 337.876C705.654 336.523 705.419 335.199 704.948 333.905C704.536 332.551 703.889 331.375 703.007 330.374C702.124 329.315 701.006 328.462 699.653 327.815C698.299 327.168 696.711 326.844 694.887 326.844C693.357 326.844 691.945 327.138 690.65 327.727C689.356 328.315 688.209 329.109 687.208 330.11C686.267 331.11 685.502 332.287 684.914 333.64C684.384 334.934 684.119 336.346 684.119 337.876C684.119 339.406 684.384 340.848 684.914 342.201C685.502 343.495 686.267 344.643 687.208 345.643C688.209 346.643 689.356 347.438 690.65 348.026C691.945 348.555 693.357 348.82 694.887 348.82ZM474.03 404.425H519.306V416.605H503.332V467H490.005V416.605H474.03V404.425ZM531.242 429.314C531.83 428.372 532.507 427.49 533.272 426.666C534.037 425.783 534.949 425.018 536.008 424.371C537.067 423.665 538.273 423.106 539.626 422.694C540.98 422.282 542.509 422.077 544.216 422.077C546.216 422.077 548.54 422.43 551.188 423.136L550.041 433.991C549.394 433.874 548.746 433.727 548.099 433.55C547.57 433.432 546.981 433.344 546.334 433.285C545.687 433.168 545.098 433.109 544.569 433.109C542.686 433.109 540.921 433.374 539.273 433.903C537.685 434.433 536.302 435.168 535.125 436.11C533.948 437.051 533.007 438.198 532.301 439.552C531.595 440.846 531.242 442.258 531.242 443.788V467H519.062V423.224H530.094L531.242 429.314ZM583.324 423.224H595.503V467H585.089L583.324 463.646C581.912 464.646 580.294 465.47 578.47 466.117C576.704 466.706 574.792 467 572.733 467C571.144 467 569.32 466.765 567.261 466.294C565.26 465.823 563.377 464.941 561.612 463.646C559.847 462.352 558.347 460.557 557.111 458.262C555.934 455.968 555.346 452.996 555.346 449.348V423.224H567.614V448.907C567.614 450.26 567.82 451.408 568.232 452.349C568.702 453.29 569.291 454.055 569.997 454.644C570.762 455.173 571.615 455.585 572.556 455.879C573.498 456.115 574.469 456.232 575.469 456.232C576.234 456.232 577.057 456.115 577.94 455.879C578.881 455.585 579.735 455.144 580.5 454.555C581.323 453.967 582 453.202 582.529 452.261C583.059 451.319 583.324 450.201 583.324 448.907V423.224ZM631.333 444.053C634.57 446.347 636.188 449.613 636.188 453.849C636.188 455.791 635.717 457.615 634.775 459.321C633.893 461.028 632.657 462.528 631.069 463.823C629.48 465.117 627.627 466.147 625.508 466.912C623.39 467.618 621.125 467.971 618.712 467.971C616.888 467.971 615.094 467.735 613.329 467.265C611.622 466.794 610.034 466.147 608.563 465.323C607.092 464.499 605.797 463.528 604.679 462.41C603.62 461.234 602.826 459.939 602.296 458.527C603.65 457.88 605.15 457.174 606.798 456.409C608.445 455.585 609.887 454.85 611.122 454.202C611.652 455.085 612.476 455.909 613.594 456.674C614.711 457.38 616.241 457.733 618.183 457.733C620.183 457.733 621.654 457.262 622.596 456.321C623.537 455.379 624.008 454.497 624.008 453.673C624.008 453.085 623.684 452.555 623.037 452.084C622.39 451.555 621.654 451.143 620.831 450.849C619.654 450.378 618.683 450.143 617.918 450.143C617.153 450.084 616.271 449.907 615.27 449.613C612.093 448.848 609.651 447.848 607.945 446.612C606.298 445.318 605.091 444.023 604.326 442.729C603.562 441.434 603.12 440.199 603.003 439.022C602.944 437.845 602.914 436.904 602.914 436.198C602.914 434.315 603.326 432.52 604.15 430.814C604.974 429.108 606.092 427.637 607.504 426.401C608.975 425.107 610.652 424.077 612.534 423.312C614.476 422.547 616.535 422.165 618.712 422.165C620.536 422.165 622.272 422.43 623.92 422.959C625.567 423.489 627.068 424.224 628.421 425.166C629.774 426.107 630.922 427.225 631.863 428.519C632.863 429.814 633.599 431.255 634.069 432.844L624.626 436.021C624.273 434.962 623.537 434.109 622.419 433.462C621.36 432.815 620.213 432.491 618.977 432.491C617.742 432.491 616.741 432.903 615.976 433.727C615.212 434.55 614.829 435.374 614.829 436.198C614.829 437.198 615.182 437.992 615.888 438.581C616.653 439.11 617.477 439.493 618.359 439.728C619.007 439.846 619.624 439.963 620.213 440.081C620.86 440.14 621.478 440.228 622.066 440.346C624.126 440.817 625.891 441.346 627.362 441.935C628.892 442.523 630.215 443.229 631.333 444.053ZM658.813 451.29C658.813 453.349 659.431 454.938 660.667 456.056C661.961 457.174 663.638 457.733 665.697 457.733C667.345 457.733 668.992 457.409 670.64 456.762V467C669.169 467.471 667.61 467.853 665.962 468.147C664.315 468.5 662.667 468.677 661.02 468.677C659.137 468.677 657.342 468.441 655.636 467.971C653.93 467.5 652.4 466.706 651.047 465.588C649.693 464.411 648.605 462.881 647.781 460.998C647.016 459.057 646.634 456.674 646.634 453.849V434.08H640.367V425.872L646.634 423.224V413.427H658.813V423.224H670.64V434.08H658.813V451.29ZM698.072 421.988C701.367 421.988 704.367 422.665 707.074 424.018C709.781 425.313 712.105 427.048 714.046 429.225C715.988 431.344 717.488 433.815 718.548 436.639C719.607 439.405 720.136 442.258 720.136 445.2C720.136 446.965 719.901 448.848 719.43 450.849H688.187C689.364 452.849 691.04 454.555 693.217 455.968C695.394 457.321 697.748 457.998 700.278 457.998C702.808 457.998 705.015 457.792 706.897 457.38C708.839 456.968 710.663 456.438 712.369 455.791L716.429 463.293C714.252 464.823 711.752 466 708.927 466.823C706.162 467.647 703.191 468.059 700.013 468.059C696.542 468.059 693.306 467.471 690.305 466.294C687.304 465.058 684.686 463.411 682.45 461.351C680.214 459.292 678.449 456.85 677.154 454.026C675.86 451.202 675.213 448.201 675.213 445.024C675.213 441.905 675.801 438.963 676.978 436.198C678.155 433.374 679.773 430.932 681.832 428.872C683.95 426.754 686.392 425.077 689.158 423.842C691.923 422.606 694.894 421.988 698.072 421.988ZM708.045 441.405C707.339 438.875 706.074 436.816 704.25 435.227C702.426 433.638 700.366 432.844 698.072 432.844C695.718 432.844 693.57 433.638 691.629 435.227C689.746 436.816 688.452 438.875 687.745 441.405H708.045ZM750.561 421.988C753.856 421.988 756.857 422.665 759.563 424.018C762.27 425.313 764.594 427.048 766.536 429.225C768.477 431.344 769.978 433.815 771.037 436.639C772.096 439.405 772.626 442.258 772.626 445.2C772.626 446.965 772.39 448.848 771.92 450.849H740.676C741.853 452.849 743.53 454.555 745.707 455.968C747.884 457.321 750.237 457.998 752.768 457.998C755.298 457.998 757.504 457.792 759.387 457.38C761.329 456.968 763.153 456.438 764.859 455.791L768.919 463.293C766.742 464.823 764.241 466 761.417 466.823C758.651 467.647 755.68 468.059 752.503 468.059C749.031 468.059 745.795 467.471 742.794 466.294C739.794 465.058 737.175 463.411 734.939 461.351C732.704 459.292 730.938 456.85 729.644 454.026C728.349 451.202 727.702 448.201 727.702 445.024C727.702 441.905 728.291 438.963 729.467 436.198C730.644 433.374 732.262 430.932 734.322 428.872C736.44 426.754 738.882 425.077 741.647 423.842C744.412 422.606 747.384 421.988 750.561 421.988ZM760.534 441.405C759.828 438.875 758.563 436.816 756.739 435.227C754.915 433.638 752.856 432.844 750.561 432.844C748.208 432.844 746.06 433.638 744.118 435.227C742.235 436.816 740.941 438.875 740.235 441.405H760.534ZM790.185 454.291C792.068 454.291 793.657 454.938 794.951 456.232C796.305 457.527 796.981 459.115 796.981 460.998C796.981 462.881 796.305 464.47 794.951 465.764C793.657 467.059 792.068 467.706 790.185 467.706C788.303 467.706 786.714 467.059 785.42 465.764C784.125 464.47 783.478 462.881 783.478 460.998C783.478 459.115 784.125 457.527 785.42 456.232C786.714 454.938 788.303 454.291 790.185 454.291ZM792.48 403.631C796.011 403.631 799.129 404.16 801.836 405.219C804.542 406.278 806.778 407.72 808.543 409.544C810.367 411.309 811.75 413.398 812.691 415.81C813.633 418.223 814.103 420.782 814.103 423.489C814.103 430.137 810.75 435.462 804.042 439.463C803.101 440.052 802.159 440.581 801.218 441.052C800.335 441.523 799.511 442.082 798.747 442.729C798.04 443.376 797.423 444.17 796.893 445.112C796.364 446.053 796.011 447.318 795.834 448.907H785.243V446.965C785.243 444.965 785.508 443.258 786.037 441.846C786.626 440.375 787.449 439.051 788.509 437.875C789.568 436.639 790.833 435.521 792.304 434.521C793.833 433.521 795.569 432.462 797.511 431.344C798.923 430.52 800.012 429.402 800.776 427.99C801.6 426.519 802.012 424.96 802.012 423.312C802.012 422.018 801.718 420.841 801.129 419.782C800.6 418.664 799.835 417.722 798.835 416.958C797.893 416.193 796.746 415.604 795.393 415.192C794.098 414.781 792.716 414.575 791.245 414.575C790.068 414.575 789.038 414.663 788.156 414.839C787.332 414.957 786.626 415.104 786.037 415.281C785.39 415.516 784.831 415.751 784.36 415.987L780.83 406.808C784.302 404.69 788.185 403.631 792.48 403.631Z" fill="white"/>
</svg>
