<svg width="230" height="223" viewBox="0 0 230 223" fill="none" xmlns="http://www.w3.org/2000/svg">
<circle cx="121" cy="109" r="109" fill="#1EBA10"/>
<circle cx="115" cy="114" r="109" fill="#36F717"/>
<circle cx="109" cy="109" r="109" fill="white"/>
<path d="M81.4531 43.512V59.964C81.4531 63.012 80.6491 65.328 79.0411 66.912C77.4571 68.472 75.2251 69.252 72.3451 69.252C69.2491 69.252 66.7891 68.4 64.9651 66.696C63.1411 64.992 62.2291 62.508 62.2291 59.244H70.1131C70.1131 60.276 70.2811 61.008 70.6171 61.44C70.9531 61.848 71.4091 62.052 71.9851 62.052C72.4651 62.052 72.8371 61.896 73.1011 61.584C73.3651 61.272 73.4971 60.732 73.4971 59.964V43.512H81.4531ZM97.3235 69.252C94.9235 69.252 92.7155 68.688 90.6995 67.56C88.7075 66.432 87.1235 64.872 85.9475 62.88C84.7715 60.888 84.1835 58.644 84.1835 56.148C84.1835 53.652 84.7715 51.408 85.9475 49.416C87.1235 47.424 88.7075 45.876 90.6995 44.772C92.7155 43.644 94.9235 43.08 97.3235 43.08C99.7235 43.08 101.92 43.644 103.912 44.772C105.904 45.876 107.476 47.424 108.628 49.416C109.804 51.408 110.392 53.652 110.392 56.148C110.392 58.644 109.804 60.888 108.628 62.88C107.476 64.872 105.892 66.432 103.876 67.56C101.884 68.688 99.6995 69.252 97.3235 69.252ZM97.3235 61.8C98.9075 61.8 100.132 61.296 100.996 60.288C101.86 59.256 102.292 57.876 102.292 56.148C102.292 54.396 101.86 53.016 100.996 52.008C100.132 50.976 98.9075 50.46 97.3235 50.46C95.7155 50.46 94.4795 50.976 93.6155 52.008C92.7515 53.016 92.3195 54.396 92.3195 56.148C92.3195 57.876 92.7515 59.256 93.6155 60.288C94.4795 61.296 95.7155 61.8 97.3235 61.8ZM121.267 43.512V69H113.275V43.512H121.267ZM149.32 69H141.328L132.868 56.184V69H124.876V43.512H132.868L141.328 56.544V43.512H149.32V69ZM93.6344 97.512V103.848H86.8664V123H78.8744V103.848H72.1784V97.512H93.6344ZM119.382 97.512V123H111.39V113.064H103.794V123H95.802V97.512H103.794V106.692H111.39V97.512H119.382ZM130.97 103.884V107.016H138.89V113.028H130.97V116.628H139.97V123H122.978V97.512H139.97V103.884H130.97ZM76.1793 151.512V157.848H69.4113V177H61.4193V157.848H54.7233V151.512H76.1793ZM86.3389 157.884V161.016H94.2589V167.028H86.3389V170.628H95.3389V177H78.3469V151.512H95.3389V157.884H86.3389ZM114.695 173.148H106.199L104.939 177H96.5508L105.875 151.512H115.091L124.379 177H115.955L114.695 173.148ZM112.751 167.136L110.447 160.044L108.143 167.136H112.751ZM156.831 151.512V177H148.875V164.292L144.951 177H138.111L134.187 164.292V177H126.195V151.512H135.987L141.603 166.812L147.075 151.512H156.831Z" fill="#1D9409"/>
</svg>
